<svg width="394" height="294" viewBox="0 0 394 294" fill="none" xmlns="http://www.w3.org/2000/svg">
<path d="M6.15 30V29.5H5.65V30H6.15ZM49.65 36L49.292 36.3491L49.2965 36.3535L49.65 36ZM52.8 71.55L52.358 71.316L52.3528 71.3264L52.8 71.55ZM44.85 78.9L44.6577 78.4385L44.35 78.5667V78.9H44.85ZM44.85 79.2H44.35V79.5576L44.6884 79.6732L44.85 79.2ZM50.7 128.7L51.0536 129.054L51.0536 129.054L50.7 128.7ZM6.15 135H5.65V135.5H6.15V135ZM36.45 70.2L36.0964 69.8464L36.0911 69.8518L36.0859 69.8573L36.45 70.2ZM36.9 47.55L36.5028 47.8537L36.5083 47.8609L36.514 47.8679L36.9 47.55ZM22.65 45V44.5H22.15V45H22.65ZM22.65 72.75H22.15V73.25H22.65V72.75ZM38.55 117.75L38.9155 118.091L38.921 118.085L38.9263 118.079L38.55 117.75ZM38.1 90.6L37.7175 90.9221L37.7267 90.933L37.7365 90.9433L38.1 90.6ZM22.65 87.75V87.25H22.15V87.75H22.65ZM22.65 120H22.15V120.5H22.65V120ZM6.15 30.5H31.05V29.5H6.15V30.5ZM31.05 30.5C39.4845 30.5 45.5255 32.4859 49.292 36.349L50.008 35.6509C45.9745 31.5141 39.6155 29.5 31.05 29.5V30.5ZM49.2965 36.3535C53.0655 40.1226 55 46.0186 55 54.15H56C56 45.8814 54.0345 39.6774 50.0036 35.6464L49.2965 36.3535ZM55 54.15V58.35H56V54.15H55ZM55 58.35C55 63.6995 54.1077 68.0113 52.3581 71.3161L53.2419 71.7839C55.0923 68.2887 56 63.8005 56 58.35H55ZM52.3528 71.3264C50.708 74.616 48.1501 76.9833 44.6577 78.4385L45.0423 79.3615C48.7499 77.8167 51.492 75.2839 53.2472 71.7736L52.3528 71.3264ZM44.35 78.9V79.2H45.35V78.9H44.35ZM44.6884 79.6732C48.6765 81.0349 51.6516 83.4812 53.6391 87.0198C55.6333 90.5707 56.65 95.2526 56.65 101.1H57.65C57.65 95.1474 56.6167 90.2793 54.5109 86.5302C52.3984 82.7688 49.2235 80.1651 45.0116 78.7268L44.6884 79.6732ZM56.65 101.1V110.1H57.65V101.1H56.65ZM56.65 110.1C56.65 118.113 54.5248 124.168 50.3465 128.346L51.0536 129.054C55.4752 124.632 57.65 118.287 57.65 110.1H56.65ZM50.3465 128.346C46.2712 132.422 40.2189 134.5 32.1 134.5V135.5C40.3811 135.5 46.7288 133.378 51.0536 129.054L50.3465 128.346ZM32.1 134.5H6.15V135.5H32.1V134.5ZM6.65 135V30H5.65V135H6.65ZM29.1 73.25C32.4797 73.25 35.086 72.3788 36.8141 70.5427L36.0859 69.8573C34.614 71.4212 32.3203 72.25 29.1 72.25V73.25ZM36.8036 70.5536C38.6432 68.7139 39.5 65.6993 39.5 61.65H38.5C38.5 65.6007 37.6568 68.2861 36.0964 69.8464L36.8036 70.5536ZM39.5 61.65V55.8H38.5V61.65H39.5ZM39.5 55.8C39.5 51.9603 38.7968 49.0667 37.286 47.2321L36.514 47.8679C37.8032 49.4333 38.5 52.0397 38.5 55.8H39.5ZM37.2972 47.2463C35.8715 45.382 33.5963 44.5 30.6 44.5V45.5C33.4037 45.5 35.3285 46.318 36.5028 47.8537L37.2972 47.2463ZM30.6 44.5H22.65V45.5H30.6V44.5ZM22.15 45V72.75H23.15V45H22.15ZM22.65 73.25H29.1V72.25H22.65V73.25ZM32.1 120.5C35.08 120.5 37.3873 119.729 38.9155 118.091L38.1845 117.409C36.9127 118.771 34.92 119.5 32.1 119.5V120.5ZM38.9263 118.079C40.4486 116.34 41.15 113.485 41.15 109.65H40.15C40.15 113.415 39.4514 115.96 38.1737 117.421L38.9263 118.079ZM41.15 109.65V100.5H40.15V109.65H41.15ZM41.15 100.5C41.15 95.6771 40.3034 92.2048 38.4635 90.2567L37.7365 90.9433C39.2966 92.5952 40.15 95.7229 40.15 100.5H41.15ZM38.4825 90.2779C36.7463 88.2163 33.8687 87.25 30 87.25V88.25C33.7313 88.25 36.2537 89.1837 37.7175 90.9221L38.4825 90.2779ZM30 87.25H22.65V88.25H30V87.25ZM22.15 87.75V120H23.15V87.75H22.15ZM22.65 120.5H32.1V119.5H22.65V120.5ZM66.7945 30V29.5H66.2945V30H66.7945ZM83.2945 30H83.7945V29.5H83.2945V30ZM83.2945 135V135.5H83.7945V135H83.2945ZM66.7945 135H66.2945V135.5H66.7945V135ZM66.7945 30.5H83.2945V29.5H66.7945V30.5ZM82.7945 30V135H83.7945V30H82.7945ZM83.2945 134.5H66.7945V135.5H83.2945V134.5ZM67.2945 135V30H66.2945V135H67.2945ZM100.752 129.75L100.383 130.087L100.386 130.091L100.752 129.75ZM100.752 35.4L101.118 35.7412L101.121 35.7371L100.752 35.4ZM137.352 35.4L136.983 35.7371L136.986 35.7412L137.352 35.4ZM143.652 63.9V64.4H144.152V63.9H143.652ZM128.052 63.9H127.552V64.4H128.052V63.9ZM128.052 90.75H128.552V90.25H128.052V90.75ZM119.802 90.75H119.302V91.25H119.802V90.75ZM119.802 75.75V75.25H119.302V75.75H119.802ZM143.652 75.75H144.152V75.25H143.652V75.75ZM137.352 129.75L137.718 130.091L137.721 130.087L137.352 129.75ZM119.052 136C111.147 136 105.197 133.779 101.117 129.409L100.386 130.091C104.707 134.721 110.957 137 119.052 137V136ZM101.121 129.413C97.0319 124.934 94.952 118.521 94.952 110.1H93.952C93.952 118.679 96.072 125.366 100.383 130.087L101.121 129.413ZM94.952 110.1V54.9H93.952V110.1H94.952ZM94.952 54.9C94.952 46.4779 97.0322 40.1182 101.117 35.7412L100.386 35.0588C96.0717 39.6818 93.952 46.322 93.952 54.9H94.952ZM101.121 35.7371C105.201 31.2685 111.15 29 119.052 29V28C110.954 28 104.703 30.3314 100.383 35.0629L101.121 35.7371ZM119.052 29C126.954 29 132.903 31.2685 136.983 35.7371L137.721 35.0629C133.401 30.3314 127.15 28 119.052 28V29ZM136.986 35.7412C141.072 40.1182 143.152 46.4779 143.152 54.9H144.152C144.152 46.322 142.032 39.6818 137.717 35.0588L136.986 35.7412ZM143.152 54.9V63.9H144.152V54.9H143.152ZM143.652 63.4H128.052V64.4H143.652V63.4ZM128.552 63.9V53.85H127.552V63.9H128.552ZM128.552 53.85C128.552 50.3437 127.83 47.621 126.3 45.7691C124.755 43.8988 122.457 43 119.502 43V44C122.247 44 124.224 44.8262 125.529 46.4059C126.849 48.004 127.552 50.4563 127.552 53.85H128.552ZM119.502 43C116.547 43 114.249 43.8988 112.704 45.7691C111.174 47.621 110.452 50.3437 110.452 53.85H111.452C111.452 50.4563 112.155 48.004 113.475 46.4059C114.78 44.8262 116.757 44 119.502 44V43ZM110.452 53.85V111.3H111.452V53.85H110.452ZM110.452 111.3C110.452 114.758 111.175 117.444 112.706 119.271C114.252 121.115 116.549 122 119.502 122V121C116.754 121 114.777 120.185 113.473 118.629C112.154 117.056 111.452 114.642 111.452 111.3H110.452ZM119.502 122C122.454 122 124.752 121.115 126.298 119.271C127.829 117.444 128.552 114.758 128.552 111.3H127.552C127.552 114.642 126.85 117.056 125.531 118.629C124.227 120.185 122.249 121 119.502 121V122ZM128.552 111.3V90.75H127.552V111.3H128.552ZM128.052 90.25H119.802V91.25H128.052V90.25ZM120.302 90.75V75.75H119.302V90.75H120.302ZM119.802 76.25H143.652V75.25H119.802V76.25ZM143.152 75.75V110.1H144.152V75.75H143.152ZM143.152 110.1C143.152 118.521 141.072 124.934 136.983 129.413L137.721 130.087C142.032 125.366 144.152 118.679 144.152 110.1H143.152ZM136.986 129.409C132.907 133.779 126.957 136 119.052 136V137C127.147 137 133.397 134.721 137.717 130.091L136.986 129.409ZM181.569 129.75L181.196 130.083L181.2 130.087L181.569 129.75ZM175.419 104.1V103.6H174.919V104.1H175.419ZM191.019 104.1H191.519V103.6H191.019V104.1ZM205.869 119.1L205.494 118.769L205.493 118.771L205.869 119.1ZM205.119 99.45L204.688 99.7035L204.692 99.7091L205.119 99.45ZM194.019 87.3L193.688 87.6749L193.691 87.6771L194.019 87.3ZM179.769 71.1L179.331 71.3413L179.333 71.3451L179.769 71.1ZM182.019 35.4L182.385 35.7412L182.388 35.7371L182.019 35.4ZM218.169 35.4L217.792 35.7282L217.8 35.7367L218.169 35.4ZM224.319 59.25V59.75H224.819V59.25H224.319ZM208.719 59.25H208.219V59.75H208.719V59.25ZM206.619 46.05L206.233 46.3678L206.238 46.3736L206.243 46.3792L206.619 46.05ZM195.219 64.2L194.791 64.4592L194.797 64.4684L195.219 64.2ZM206.469 76.2L206.141 76.5771L206.141 76.5773L206.469 76.2ZM220.719 92.55L220.277 92.7844L220.277 92.7844L220.719 92.55ZM218.169 129.6L217.804 129.259L217.8 129.263L218.169 129.6ZM199.719 136C191.813 136 185.917 133.779 181.939 129.413L181.2 130.087C185.422 134.721 191.625 137 199.719 137V136ZM181.942 129.417C177.951 124.939 175.919 118.524 175.919 110.1H174.919C174.919 118.676 176.988 125.361 181.196 130.083L181.942 129.417ZM175.919 110.1V104.1H174.919V110.1H175.919ZM175.419 104.6H191.019V103.6H175.419V104.6ZM190.519 104.1V111.3H191.519V104.1H190.519ZM190.519 111.3C190.519 114.758 191.242 117.444 192.773 119.271C194.319 121.115 196.617 122 199.569 122V121C196.822 121 194.844 120.185 193.54 118.629C192.221 117.056 191.519 114.642 191.519 111.3H190.519ZM199.569 122C202.465 122 204.723 121.17 206.245 119.429L205.493 118.771C204.216 120.23 202.273 121 199.569 121V122ZM206.244 119.431C207.862 117.597 208.619 114.75 208.619 111H207.619C207.619 114.65 206.876 117.203 205.494 118.769L206.244 119.431ZM208.619 111C208.619 106.522 207.6 102.579 205.547 99.1908L204.692 99.7091C206.638 102.921 207.619 106.678 207.619 111H208.619ZM205.55 99.1965C203.509 95.7266 199.761 91.6343 194.347 86.9228L193.691 87.6771C199.078 92.3656 202.729 96.3734 204.688 99.7035L205.55 99.1965ZM194.35 86.9251C187.568 80.9414 182.865 75.5846 180.205 70.8549L179.333 71.3451C182.073 76.2153 186.87 81.6586 193.688 87.6749L194.35 86.9251ZM180.207 70.8587C177.551 66.0392 176.219 60.6234 176.219 54.6H175.219C175.219 60.7766 176.587 66.3608 179.331 71.3413L180.207 70.8587ZM176.219 54.6C176.219 46.3817 178.298 40.1203 182.385 35.7412L181.654 35.0588C177.341 39.6797 175.219 46.2183 175.219 54.6H176.219ZM182.388 35.7371C186.468 31.2685 192.417 29 200.319 29V28C192.221 28 185.97 30.3314 181.65 35.0629L182.388 35.7371ZM200.319 29C208.12 29 213.913 31.2676 217.792 35.7281L218.546 35.0719C214.425 30.3324 208.318 28 200.319 28V29ZM217.8 35.7367C221.787 40.1137 223.819 46.4751 223.819 54.9H224.819C224.819 46.3249 222.751 39.6863 218.539 35.0632L217.8 35.7367ZM223.819 54.9V59.25H224.819V54.9H223.819ZM224.319 58.75H208.719V59.75H224.319V58.75ZM209.219 59.25V53.85H208.219V59.25H209.219ZM209.219 53.85C209.219 50.2063 208.515 47.4569 206.995 45.7207L206.243 46.3792C207.524 47.8431 208.219 50.2937 208.219 53.85H209.219ZM207.005 45.7321C205.489 43.891 203.281 43 200.469 43V44C203.057 44 204.949 44.809 206.233 46.3678L207.005 45.7321ZM200.469 43C197.613 43 195.39 43.8745 193.895 45.6953C192.416 47.4971 191.719 50.1443 191.719 53.55H192.719C192.719 50.2557 193.397 47.8779 194.668 46.3297C195.923 44.8005 197.825 44 200.469 44V43ZM191.719 53.55C191.719 57.4429 192.745 61.0823 194.792 64.4591L195.647 63.9408C193.693 60.7177 192.719 57.2571 192.719 53.55H191.719ZM194.797 64.4684C196.936 67.8296 200.729 71.8671 206.141 76.5771L206.797 75.8228C201.409 71.1329 197.702 67.1704 195.641 63.9316L194.797 64.4684ZM206.141 76.5773C213.021 82.5597 217.719 87.9624 220.277 92.7844L221.161 92.3156C218.519 87.3375 213.717 81.8403 206.797 75.8227L206.141 76.5773ZM220.277 92.7844C222.833 97.5997 224.119 103.266 224.119 109.8H225.119C225.119 103.134 223.806 97.3003 221.161 92.3156L220.277 92.7844ZM224.119 109.8C224.119 118.32 221.99 124.781 217.804 129.259L218.534 129.941C222.948 125.219 225.119 118.48 225.119 109.8H224.119ZM217.8 129.263C213.721 133.73 207.723 136 199.719 136V137C207.915 137 214.217 134.67 218.538 129.937L217.8 129.263ZM246.39 30V29.5H245.965L245.897 29.9196L246.39 30ZM268.74 30L269.234 29.9196L269.165 29.5H268.74V30ZM285.84 135V135.5H286.428L286.334 134.92L285.84 135ZM269.34 135L268.845 135.071L268.907 135.5H269.34V135ZM266.34 114.15L266.835 114.079L265.84 114.15H266.34ZM266.34 114.45V114.95H266.84V114.45H266.34ZM247.59 114.45V113.95H247.158L247.095 114.378L247.59 114.45ZM244.59 135V135.5H245.023L245.085 135.072L244.59 135ZM229.29 135L228.797 134.92L228.702 135.5H229.29V135ZM264.39 100.2V100.7H264.966L264.885 100.13L264.39 100.2ZM257.04 48.3L257.535 48.2299L257.474 47.8H257.04V48.3ZM256.74 48.3V47.8H256.305L256.245 48.2313L256.74 48.3ZM249.54 100.2L249.045 100.131L248.966 100.7H249.54V100.2ZM246.39 30.5H268.74V29.5H246.39V30.5ZM268.247 30.0804L285.347 135.08L286.334 134.92L269.234 29.9196L268.247 30.0804ZM285.84 134.5H269.34V135.5H285.84V134.5ZM269.835 134.929L266.835 114.079L265.845 114.221L268.845 135.071L269.835 134.929ZM265.84 114.15V114.45H266.84V114.15H265.84ZM266.34 113.95H247.59V114.95H266.34V113.95ZM247.095 114.378L244.095 134.928L245.085 135.072L248.085 114.522L247.095 114.378ZM244.59 134.5H229.29V135.5H244.59V134.5ZM229.784 135.08L246.884 30.0804L245.897 29.9196L228.797 134.92L229.784 135.08ZM264.885 100.13L257.535 48.2299L256.545 48.3701L263.895 100.27L264.885 100.13ZM257.04 47.8H256.74V48.8H257.04V47.8ZM256.245 48.2313L249.045 100.131L250.035 100.269L257.235 48.3687L256.245 48.2313ZM249.54 100.7H264.39V99.7H249.54V100.7ZM293.845 30V29.5H293.345V30H293.845ZM310.345 30H310.845V29.5H310.345V30ZM310.345 120H309.845V120.5H310.345V120ZM337.495 120H337.995V119.5H337.495V120ZM337.495 135V135.5H337.995V135H337.495ZM293.845 135H293.345V135.5H293.845V135ZM293.845 30.5H310.345V29.5H293.845V30.5ZM309.845 30V120H310.845V30H309.845ZM310.345 120.5H337.495V119.5H310.345V120.5ZM336.995 120V135H337.995V120H336.995ZM337.495 134.5H293.845V135.5H337.495V134.5ZM294.345 135V30H293.345V135H294.345ZM345.408 30V29.5H344.908V30H345.408ZM390.408 30H390.908V29.5H390.408V30ZM390.408 45V45.5H390.908V45H390.408ZM361.908 45V44.5H361.408V45H361.908ZM361.908 72.75H361.408V73.25H361.908V72.75ZM384.558 72.75H385.058V72.25H384.558V72.75ZM384.558 87.75V88.25H385.058V87.75H384.558ZM361.908 87.75V87.25H361.408V87.75H361.908ZM361.908 120H361.408V120.5H361.908V120ZM390.408 120H390.908V119.5H390.408V120ZM390.408 135V135.5H390.908V135H390.408ZM345.408 135H344.908V135.5H345.408V135ZM345.408 30.5H390.408V29.5H345.408V30.5ZM389.908 30V45H390.908V30H389.908ZM390.408 44.5H361.908V45.5H390.408V44.5ZM361.408 45V72.75H362.408V45H361.408ZM361.908 73.25H384.558V72.25H361.908V73.25ZM384.058 72.75V87.75H385.058V72.75H384.058ZM384.558 87.25H361.908V88.25H384.558V87.25ZM361.408 87.75V120H362.408V87.75H361.408ZM361.908 120.5H390.408V119.5H361.908V120.5ZM389.908 120V135H390.908V120H389.908ZM390.408 134.5H345.408V135.5H390.408V134.5ZM345.908 135V30H344.908V135H345.908Z" fill="black"/>
<path d="M6.15 144H31.05C39.55 144 45.75 146 49.65 150C53.55 153.9 55.5 159.95 55.5 168.15V172.35C55.5 177.75 54.6 182.15 52.8 185.55C51.1 188.95 48.45 191.4 44.85 192.9V193.2C53.05 196 57.15 203.3 57.15 215.1V224.1C57.15 232.2 55 238.4 50.7 242.7C46.5 246.9 40.3 249 32.1 249H6.15V144ZM29.1 186.75C32.4 186.75 34.85 185.9 36.45 184.2C38.15 182.5 39 179.65 39 175.65V169.8C39 166 38.3 163.25 36.9 161.55C35.6 159.85 33.5 159 30.6 159H22.65V186.75H29.1ZM32.1 234C35 234 37.15 233.25 38.55 231.75C39.95 230.15 40.65 227.45 40.65 223.65V214.5C40.65 209.7 39.8 206.4 38.1 204.6C36.5 202.7 33.8 201.75 30 201.75H22.65V234H32.1ZM66.7945 144H83.2945V249H66.7945V144ZM119.052 250.5C111.052 250.5 104.952 248.25 100.752 243.75C96.552 239.15 94.452 232.6 94.452 224.1V168.9C94.452 160.4 96.552 153.9 100.752 149.4C104.952 144.8 111.052 142.5 119.052 142.5C127.052 142.5 133.152 144.8 137.352 149.4C141.552 153.9 143.652 160.4 143.652 168.9V177.9H128.052V167.85C128.052 160.95 125.202 157.5 119.502 157.5C113.802 157.5 110.952 160.95 110.952 167.85V225.3C110.952 232.1 113.802 235.5 119.502 235.5C125.202 235.5 128.052 232.1 128.052 225.3V204.75H119.802V189.75H143.652V224.1C143.652 232.6 141.552 239.15 137.352 243.75C133.152 248.25 127.052 250.5 119.052 250.5ZM199.719 250.5C191.719 250.5 185.669 248.25 181.569 243.75C177.469 239.15 175.419 232.6 175.419 224.1V218.1H191.019V225.3C191.019 232.1 193.869 235.5 199.569 235.5C202.369 235.5 204.469 234.7 205.869 233.1C207.369 231.4 208.119 228.7 208.119 225C208.119 220.6 207.119 216.75 205.119 213.45C203.119 210.05 199.419 206 194.019 201.3C187.219 195.3 182.469 189.9 179.769 185.1C177.069 180.2 175.719 174.7 175.719 168.6C175.719 160.3 177.819 153.9 182.019 149.4C186.219 144.8 192.319 142.5 200.319 142.5C208.219 142.5 214.169 144.8 218.169 149.4C222.269 153.9 224.319 160.4 224.319 168.9V173.25H208.719V167.85C208.719 164.25 208.019 161.65 206.619 160.05C205.219 158.35 203.169 157.5 200.469 157.5C194.969 157.5 192.219 160.85 192.219 167.55C192.219 171.35 193.219 174.9 195.219 178.2C197.319 181.5 201.069 185.5 206.469 190.2C213.369 196.2 218.119 201.65 220.719 206.55C223.319 211.45 224.619 217.2 224.619 223.8C224.619 232.4 222.469 239 218.169 243.6C213.969 248.2 207.819 250.5 199.719 250.5ZM246.39 144H268.74L285.84 249H269.34L266.34 228.15V228.45H247.59L244.59 249H229.29L246.39 144ZM264.39 214.2L257.04 162.3H256.74L249.54 214.2H264.39ZM293.845 144H310.345V234H337.495V249H293.845V144ZM345.408 144H390.408V159H361.908V186.75H384.558V201.75H361.908V234H390.408V249H345.408V144Z" fill="black"/>
</svg>
